<mxfile host="app.diagrams.net" modified="2022-01-12T19:13:36.101Z" agent="5.0 (Windows)" etag="-ps-FFObraYSWc2zsDRr" version="16.1.0" type="github">
  <diagram id="lru5pQLY-OKbx4syy4XE" name="Page-1">
    <mxGraphModel dx="1422" dy="780" grid="1" gridSize="10" guides="1" tooltips="1" connect="1" arrows="1" fold="1" page="1" pageScale="1" pageWidth="827" pageHeight="583" math="1" shadow="0">
      <root>
        <mxCell id="0" />
        <mxCell id="1" parent="0" />
        <mxCell id="msDJIyryr2EympNBodib-2" style="edgeStyle=orthogonalEdgeStyle;rounded=0;orthogonalLoop=1;jettySize=auto;html=1;" edge="1" parent="1" source="msDJIyryr2EympNBodib-1">
          <mxGeometry relative="1" as="geometry">
            <mxPoint x="642.5" y="100" as="targetPoint" />
          </mxGeometry>
        </mxCell>
        <mxCell id="msDJIyryr2EympNBodib-4" style="edgeStyle=orthogonalEdgeStyle;rounded=0;orthogonalLoop=1;jettySize=auto;html=1;fontSize=24;endArrow=none;endFill=0;startArrow=classic;startFill=1;" edge="1" parent="1" source="msDJIyryr2EympNBodib-1">
          <mxGeometry relative="1" as="geometry">
            <mxPoint x="352.5" y="230" as="targetPoint" />
          </mxGeometry>
        </mxCell>
        <mxCell id="msDJIyryr2EympNBodib-5" value="&lt;i&gt;$$k$$&lt;/i&gt;" style="edgeLabel;html=1;align=center;verticalAlign=middle;resizable=0;points=[];fontSize=24;" vertex="1" connectable="0" parent="msDJIyryr2EympNBodib-4">
          <mxGeometry x="0.78" y="1" relative="1" as="geometry">
            <mxPoint x="9" as="offset" />
          </mxGeometry>
        </mxCell>
        <mxCell id="msDJIyryr2EympNBodib-1" value="&lt;font style=&quot;font-size: 24px&quot;&gt;$$e$$&lt;/font&gt;" style="rounded=0;whiteSpace=wrap;html=1;" vertex="1" parent="1">
          <mxGeometry x="292.5" y="70" width="120" height="60" as="geometry" />
        </mxCell>
        <mxCell id="msDJIyryr2EympNBodib-3" value="&lt;i&gt;$$y_i$$&lt;/i&gt;" style="text;html=1;align=center;verticalAlign=middle;resizable=0;points=[];autosize=1;strokeColor=none;fillColor=none;fontSize=24;" vertex="1" parent="1">
          <mxGeometry x="580" y="50" width="100" height="30" as="geometry" />
        </mxCell>
        <mxCell id="msDJIyryr2EympNBodib-7" style="edgeStyle=orthogonalEdgeStyle;rounded=0;orthogonalLoop=1;jettySize=auto;html=1;entryX=0;entryY=0.5;entryDx=0;entryDy=0;fontSize=24;startArrow=none;startFill=0;endArrow=classic;endFill=1;" edge="1" parent="1" source="msDJIyryr2EympNBodib-6" target="msDJIyryr2EympNBodib-1">
          <mxGeometry relative="1" as="geometry" />
        </mxCell>
        <mxCell id="msDJIyryr2EympNBodib-9" style="edgeStyle=orthogonalEdgeStyle;rounded=0;orthogonalLoop=1;jettySize=auto;html=1;fontSize=24;startArrow=classic;startFill=1;endArrow=none;endFill=0;" edge="1" parent="1" source="msDJIyryr2EympNBodib-6">
          <mxGeometry relative="1" as="geometry">
            <mxPoint x="167.5" y="220" as="targetPoint" />
          </mxGeometry>
        </mxCell>
        <mxCell id="msDJIyryr2EympNBodib-10" value="&lt;div&gt;&lt;i&gt;$$k_1$$&lt;/i&gt;&lt;/div&gt;" style="edgeLabel;html=1;align=center;verticalAlign=middle;resizable=0;points=[];fontSize=24;" vertex="1" connectable="0" parent="msDJIyryr2EympNBodib-9">
          <mxGeometry x="0.6941" relative="1" as="geometry">
            <mxPoint as="offset" />
          </mxGeometry>
        </mxCell>
        <mxCell id="msDJIyryr2EympNBodib-27" style="edgeStyle=orthogonalEdgeStyle;rounded=0;orthogonalLoop=1;jettySize=auto;html=1;fontSize=24;startArrow=classic;startFill=1;endArrow=none;endFill=0;" edge="1" parent="1" source="msDJIyryr2EympNBodib-6">
          <mxGeometry relative="1" as="geometry">
            <mxPoint x="52.5" y="100" as="targetPoint" />
          </mxGeometry>
        </mxCell>
        <mxCell id="msDJIyryr2EympNBodib-6" value="" style="shape=orEllipse;perimeter=ellipsePerimeter;whiteSpace=wrap;html=1;backgroundOutline=1;fontSize=24;" vertex="1" parent="1">
          <mxGeometry x="142.5" y="75" width="50" height="50" as="geometry" />
        </mxCell>
        <mxCell id="msDJIyryr2EympNBodib-11" style="edgeStyle=orthogonalEdgeStyle;rounded=0;orthogonalLoop=1;jettySize=auto;html=1;startArrow=none;" edge="1" parent="1" source="msDJIyryr2EympNBodib-20">
          <mxGeometry relative="1" as="geometry">
            <mxPoint x="650" y="310" as="targetPoint" />
          </mxGeometry>
        </mxCell>
        <mxCell id="msDJIyryr2EympNBodib-12" style="edgeStyle=orthogonalEdgeStyle;rounded=0;orthogonalLoop=1;jettySize=auto;html=1;fontSize=24;endArrow=none;endFill=0;startArrow=classic;startFill=1;" edge="1" parent="1" source="msDJIyryr2EympNBodib-14">
          <mxGeometry relative="1" as="geometry">
            <mxPoint x="360" y="440" as="targetPoint" />
          </mxGeometry>
        </mxCell>
        <mxCell id="msDJIyryr2EympNBodib-13" value="$$k$$" style="edgeLabel;html=1;align=center;verticalAlign=middle;resizable=0;points=[];fontSize=24;" vertex="1" connectable="0" parent="msDJIyryr2EympNBodib-12">
          <mxGeometry x="0.78" y="1" relative="1" as="geometry">
            <mxPoint x="9" as="offset" />
          </mxGeometry>
        </mxCell>
        <mxCell id="msDJIyryr2EympNBodib-22" style="edgeStyle=orthogonalEdgeStyle;rounded=0;orthogonalLoop=1;jettySize=auto;html=1;entryX=0;entryY=0.5;entryDx=0;entryDy=0;fontSize=24;startArrow=none;startFill=0;endArrow=classic;endFill=1;" edge="1" parent="1" source="msDJIyryr2EympNBodib-14" target="msDJIyryr2EympNBodib-20">
          <mxGeometry relative="1" as="geometry" />
        </mxCell>
        <mxCell id="msDJIyryr2EympNBodib-25" style="edgeStyle=orthogonalEdgeStyle;rounded=0;orthogonalLoop=1;jettySize=auto;html=1;fontSize=24;startArrow=classic;startFill=1;endArrow=none;endFill=0;" edge="1" parent="1" source="msDJIyryr2EympNBodib-14">
          <mxGeometry relative="1" as="geometry">
            <mxPoint x="50" y="310" as="targetPoint" />
          </mxGeometry>
        </mxCell>
        <mxCell id="msDJIyryr2EympNBodib-26" value="$$x_i$$" style="edgeLabel;html=1;align=center;verticalAlign=middle;resizable=0;points=[];fontSize=24;" vertex="1" connectable="0" parent="msDJIyryr2EympNBodib-25">
          <mxGeometry x="0.824" y="3" relative="1" as="geometry">
            <mxPoint x="-32" y="-8" as="offset" />
          </mxGeometry>
        </mxCell>
        <mxCell id="msDJIyryr2EympNBodib-14" value="&lt;font style=&quot;font-size: 24px&quot;&gt;$$e$$&lt;/font&gt;" style="rounded=0;whiteSpace=wrap;html=1;" vertex="1" parent="1">
          <mxGeometry x="300" y="280" width="120" height="60" as="geometry" />
        </mxCell>
        <mxCell id="msDJIyryr2EympNBodib-34" style="edgeStyle=orthogonalEdgeStyle;rounded=0;orthogonalLoop=1;jettySize=auto;html=1;fontSize=24;startArrow=classic;startFill=1;endArrow=none;endFill=0;" edge="1" parent="1" source="msDJIyryr2EympNBodib-20">
          <mxGeometry relative="1" as="geometry">
            <mxPoint x="535" y="420" as="targetPoint" />
            <Array as="points">
              <mxPoint x="535" y="400" />
              <mxPoint x="535" y="400" />
            </Array>
          </mxGeometry>
        </mxCell>
        <mxCell id="msDJIyryr2EympNBodib-20" value="" style="shape=orEllipse;perimeter=ellipsePerimeter;whiteSpace=wrap;html=1;backgroundOutline=1;fontSize=24;" vertex="1" parent="1">
          <mxGeometry x="510" y="285" width="50" height="50" as="geometry" />
        </mxCell>
        <mxCell id="msDJIyryr2EympNBodib-29" value="$$x_i$$" style="edgeLabel;html=1;align=center;verticalAlign=middle;resizable=0;points=[];fontSize=24;" vertex="1" connectable="0" parent="1">
          <mxGeometry x="50" y="315" as="geometry">
            <mxPoint x="-10" y="-206" as="offset" />
          </mxGeometry>
        </mxCell>
        <mxCell id="msDJIyryr2EympNBodib-32" value="&lt;i&gt;$$y_i$$&lt;/i&gt;" style="text;html=1;align=center;verticalAlign=middle;resizable=0;points=[];autosize=1;strokeColor=none;fillColor=none;fontSize=24;" vertex="1" parent="1">
          <mxGeometry x="600" y="270" width="100" height="30" as="geometry" />
        </mxCell>
        <mxCell id="msDJIyryr2EympNBodib-35" value="$$k_1$$" style="text;html=1;align=center;verticalAlign=middle;resizable=0;points=[];autosize=1;strokeColor=none;fillColor=none;fontSize=24;" vertex="1" parent="1">
          <mxGeometry x="485" y="425" width="110" height="30" as="geometry" />
        </mxCell>
      </root>
    </mxGraphModel>
  </diagram>
</mxfile>
